<svg xmlns="http://www.w3.org/2000/svg" viewBox="0 0 204.93 59.72"><defs><style>.cls-1{fill-rule:evenodd;}</style></defs><title>logo</title><g id="Capa_2" data-name="Capa 2"><g id="Capa_1-2" data-name="Capa 1"><path d="M49.06,33.89H92.82q4.59-.08,4.59,4.57c0,1.9-.54,3.15-1.65,3.75a7.25,7.25,0,0,1-3.53.9H19.55a28.05,28.05,0,0,1-8.28-1,12.14,12.14,0,0,1-5.51-3.3Q0,33.28,0,21.67,0,12.22,4.79,5.92a14.24,14.24,0,0,1,5.82-4.65A25.71,25.71,0,0,1,19.55,0h64q7.19,0,10.55,4.16a13.38,13.38,0,0,1,3.2,9.08,14.26,14.26,0,0,1-3.66,9q-3.48,4.08-9.9,3.94l-53.53.07H30q-3.82-.23-3.82-4.65t4-4.57h.58l54.82.07c2.33-.29,3.43-1.67,3.3-4.12s-1.25-3.7-3.37-3.75H20.71a22.43,22.43,0,0,0-5,.45,9.28,9.28,0,0,0-3.3,1.73Q8.62,14.55,8.61,21.52q0,6.07,2.27,9.14,2.4,3.23,8.54,3.23H49.06Z"/><path d="M130.62,33.89h65.6V4.95c0-3.3,1.44-4.95,4.32-4.95s4.39,1.62,4.39,4.87V43.11H120.77a26.8,26.8,0,0,1-8-.9,8.38,8.38,0,0,1-4.59-3.07q-3.46-4.21-3.46-11.7V4.87Q104.67,0,109,0c2.88,0,4.33,1.62,4.33,4.87V25.57a22.46,22.46,0,0,0,.26,4.35,3.66,3.66,0,0,0,1.06,2.17q1.6,1.8,5,1.8h11Z"/><path class="cls-1" d="M106,54.47a6.76,6.76,0,0,1,.67.13,2,2,0,0,1,1.24,1,3.33,3.33,0,0,1,.3,2,2.72,2.72,0,0,1-.42,1.2,2.62,2.62,0,0,1-3.19.67,2,2,0,0,1-1-1.1,3.46,3.46,0,0,1,0-2.56,1.9,1.9,0,0,1,1.11-1.12,5.61,5.61,0,0,1,.75-.19l.13,0Zm1.79,2.63a2.92,2.92,0,0,0-.37-1.51,2.06,2.06,0,0,0-2.6-.58,1.66,1.66,0,0,0-.83,1,3.38,3.38,0,0,0,0,2.29,1.62,1.62,0,0,0,.81.93,2,2,0,0,0,2.6-.58,2.93,2.93,0,0,0,.37-1.51"/><path class="cls-1" d="M112.39,54.47c.22,0,.45.07.67.13a2,2,0,0,1,1.25,1,3.35,3.35,0,0,1,.29,2,2.69,2.69,0,0,1-.42,1.2,2.62,2.62,0,0,1-3.19.67,1.94,1.94,0,0,1-1-1.09,3.46,3.46,0,0,1,0-2.56,1.87,1.87,0,0,1,1.1-1.12,6,6,0,0,1,.75-.19l.13,0Zm1.79,2.62a2.82,2.82,0,0,0-.37-1.49,1.94,1.94,0,0,0-2.15-.75,1.58,1.58,0,0,0-1.18.92,3.24,3.24,0,0,0-.08,2.51,1.58,1.58,0,0,0,.79.91,2,2,0,0,0,2.61-.57,2.89,2.89,0,0,0,.37-1.53"/><path class="cls-1" d="M120.35,58.2a1,1,0,0,0,0,.14,2.21,2.21,0,0,1-2.25,1.37,2.87,2.87,0,0,1-1.91-.58c-.15-.13-.11-.28.11-.32a.22.22,0,0,1,.15.05,2.42,2.42,0,0,0,1.68.54A1.67,1.67,0,0,0,119.89,58a1.11,1.11,0,0,0-.9-1.15,3.25,3.25,0,0,0-.78-.12c-.57,0-1.14,0-1.71,0-.24,0-.31,0-.31-.23V54.72c0-.14,0-.16.22-.16h3c.17,0,.21,0,.21.15s0,.15-.21.15h-2.74v1.58h.17c.56,0,1.13,0,1.69,0a1.94,1.94,0,0,1,1.7.84,2.42,2.42,0,0,1,.17.48Z"/><path class="cls-1" d="M81.93,58a3.66,3.66,0,0,1,.2-.53A2.23,2.23,0,0,1,85.25,57a1.14,1.14,0,0,1,.44,1c0,.17-.05.18-.28.18h-3c0,.62.66,1.16,1.46,1.18A2.52,2.52,0,0,0,85,59.16c.12-.06.19-.05.28,0s0,.15-.06.21a3,3,0,0,1-2.4.1,1.48,1.48,0,0,1-.9-1.1s0-.06,0-.09Zm.47,0h2.84c0-.53-.43-1.08-1.34-1.09s-1.52.65-1.5,1.09"/><path class="cls-1" d="M98.54,59.34h3.2c.18,0,.21,0,.21.15s0,.15-.21.15H98c-.07,0-.19,0-.21-.07s0-.15.06-.22l2.49-1.88a4.17,4.17,0,0,0,1-.94,1,1,0,0,0-.3-1.44,2.06,2.06,0,0,0-1.23-.29,2.12,2.12,0,0,0-1.41.56c-.11.11-.17.11-.29,0s-.15-.12,0-.23a2.87,2.87,0,0,1,3.19-.38,1.27,1.27,0,0,1,.7,1.46,2.16,2.16,0,0,1-.79,1.05c-.84.65-1.69,1.28-2.53,1.91l-.13.08,0,0"/><path class="cls-1" d="M88,59.71a2.58,2.58,0,0,1-1.25-.29c-.15-.08-.16-.12-.05-.24s.17-.06.27,0a2.06,2.06,0,0,0,1.34.23c.4-.07.63-.29.61-.55a.45.45,0,0,0-.33-.36l-.9-.3a4.56,4.56,0,0,1-.68-.27.61.61,0,0,1,0-1.16,2,2,0,0,1,1.29-.15,3.7,3.7,0,0,1,.63.17c.15,0,.16.11.08.21s-.15.11-.28.05a2,2,0,0,0-1.2-.15c-.36.07-.56.3-.49.54a.45.45,0,0,0,.3.28c.26.1.53.18.79.27a7.06,7.06,0,0,1,.76.28.64.64,0,0,1,0,1.23,2.07,2.07,0,0,1-.93.22"/><path class="cls-1" d="M91.12,56.65h1.3c.13,0,.22,0,.21.15s0,.15-.21.15H91.13a.38.38,0,0,0,0,.1c0,.63,0,1.25,0,1.88,0,.42.22.52.75.45a5,5,0,0,0,.64-.17.16.16,0,0,1,.21,0c0,.07.12.15,0,.21a2.41,2.41,0,0,1-1.49.22.53.53,0,0,1-.48-.43,1.33,1.33,0,0,1,0-.29c0-.62,0-1.25,0-1.87v-.14h-.37c-.21,0-.22,0-.22-.15s0-.15.21-.15h.38v-.43c0-.1,0-.19,0-.29s.05-.2.31-.19c0,0,.1.09.11.14,0,.25,0,.5,0,.77"/><path class="cls-1" d="M94.54,59.42c0,.17-.18.3-.4.3s-.4-.14-.4-.3a.37.37,0,0,1,.41-.3.35.35,0,0,1,.39.3"/></g></g></svg>